<svg xmlns="http://www.w3.org/2000/svg" width="80" height="80" fill="none"><path fill="#EAB00D" stroke="#000" stroke-width=".5" d="M15 29.58a9 9 0 0 1 0-18h6.46a9 9 0 1 1 0 18z"/><rect width="22.73" height="17.98" x="51.58" y="11.6" fill="#EAB00D" stroke="#000" stroke-width=".5" rx="1.67"/><path fill="#EAB00D" stroke="#000" stroke-width=".5" d="M60.57 67.91a9 9 0 1 1 0-18h4.74a9 9 0 1 1 0 18zM19.94 68.4a1.67 1.67 0 0 1-.88-.25L6.73 60.3a1.62 1.62 0 0 1-.76-1.38 1.63 1.63 0 0 1 .76-1.39l12.33-7.84a1.6 1.6 0 0 1 .88-.25 1.63 1.63 0 0 1 .88.25l12.32 7.84c.477.3.764.826.76 1.39a1.62 1.62 0 0 1-.76 1.38l-12.32 7.85a1.7 1.7 0 0 1-.88.25Z"/><path stroke="#000" d="M30.91 20.59h16.58"/><path fill="#000" d="m46.76 23.08 4.32-2.49-4.32-2.49z"/><path stroke="#000" d="M62.94 30.08V37a2.17 2.17 0 0 1-2.16 2.19H22.09a2.17 2.17 0 0 0-2.15 2.18v3.93"/><path fill="#000" d="m17.44 44.55 2.5 4.31 2.49-4.31z"/><path stroke="#000" d="M34.4 58.92h13.09"/><path fill="#000" d="m46.76 61.41 4.32-2.49-4.32-2.49z"/><path stroke="#FFFCEF" stroke-linecap="round" stroke-width="2" d="M12.1 20.62h11.24M56.93 18.48h11.24M56.93 22.76h8.03M59.79 58.95h5.89M12.5 58.95h14.45"/></svg>